<mxfile host="Electron" agent="Mozilla/5.0 (Macintosh; Intel Mac OS X 10_15_7) AppleWebKit/537.36 (KHTML, like Gecko) draw.io/26.0.16 Chrome/132.0.6834.196 Electron/34.2.0 Safari/537.36" version="26.0.16">
  <diagram name="Page-1" id="ZeP9OFAIea2QbIN0LHaS">
    <mxGraphModel dx="1306" dy="812" grid="1" gridSize="10" guides="1" tooltips="1" connect="1" arrows="1" fold="1" page="1" pageScale="1" pageWidth="3300" pageHeight="4681" math="0" shadow="0">
      <root>
        <mxCell id="0" />
        <mxCell id="1" parent="0" />
        <mxCell id="pzSQEiRu-TKgo18cBddZ-6" style="edgeStyle=orthogonalEdgeStyle;rounded=0;orthogonalLoop=1;jettySize=auto;html=1;exitX=1;exitY=0.5;exitDx=0;exitDy=0;entryX=0;entryY=0.5;entryDx=0;entryDy=0;curved=1;dashed=1;" parent="1" source="pzSQEiRu-TKgo18cBddZ-1" target="pzSQEiRu-TKgo18cBddZ-2" edge="1">
          <mxGeometry relative="1" as="geometry" />
        </mxCell>
        <mxCell id="pzSQEiRu-TKgo18cBddZ-47" value="Reorient sequences" style="edgeLabel;html=1;align=center;verticalAlign=middle;resizable=0;points=[];" parent="pzSQEiRu-TKgo18cBddZ-6" vertex="1" connectable="0">
          <mxGeometry relative="1" as="geometry">
            <mxPoint y="-10" as="offset" />
          </mxGeometry>
        </mxCell>
        <mxCell id="pzSQEiRu-TKgo18cBddZ-10" style="edgeStyle=orthogonalEdgeStyle;rounded=0;orthogonalLoop=1;jettySize=auto;html=1;exitX=0.5;exitY=1;exitDx=0;exitDy=0;entryX=0;entryY=0.5;entryDx=0;entryDy=0;" parent="1" source="pzSQEiRu-TKgo18cBddZ-1" target="pzSQEiRu-TKgo18cBddZ-3" edge="1">
          <mxGeometry relative="1" as="geometry" />
        </mxCell>
        <mxCell id="8B6IXXiz2PsDgIRqPqF5-2" style="edgeStyle=orthogonalEdgeStyle;rounded=0;orthogonalLoop=1;jettySize=auto;html=1;exitX=0;exitY=0.5;exitDx=0;exitDy=0;entryX=1;entryY=0.5;entryDx=0;entryDy=0;" parent="1" source="pzSQEiRu-TKgo18cBddZ-1" target="pzSQEiRu-TKgo18cBddZ-4" edge="1">
          <mxGeometry relative="1" as="geometry" />
        </mxCell>
        <mxCell id="pzSQEiRu-TKgo18cBddZ-1" value="taxonomy" style="rounded=1;whiteSpace=wrap;html=1;" parent="1" vertex="1">
          <mxGeometry x="320" y="80" width="120" height="60" as="geometry" />
        </mxCell>
        <mxCell id="pzSQEiRu-TKgo18cBddZ-11" style="edgeStyle=orthogonalEdgeStyle;rounded=0;orthogonalLoop=1;jettySize=auto;html=1;exitX=0.5;exitY=1;exitDx=0;exitDy=0;entryX=1;entryY=0.5;entryDx=0;entryDy=0;" parent="1" source="pzSQEiRu-TKgo18cBddZ-2" target="pzSQEiRu-TKgo18cBddZ-3" edge="1">
          <mxGeometry relative="1" as="geometry" />
        </mxCell>
        <mxCell id="pzSQEiRu-TKgo18cBddZ-2" value="features" style="rounded=1;whiteSpace=wrap;html=1;" parent="1" vertex="1">
          <mxGeometry x="680" y="80" width="120" height="60" as="geometry" />
        </mxCell>
        <mxCell id="pzSQEiRu-TKgo18cBddZ-44" style="edgeStyle=orthogonalEdgeStyle;rounded=0;orthogonalLoop=1;jettySize=auto;html=1;exitX=0.5;exitY=1;exitDx=0;exitDy=0;" parent="1" source="pzSQEiRu-TKgo18cBddZ-3" edge="1">
          <mxGeometry relative="1" as="geometry">
            <mxPoint x="560" y="250" as="targetPoint" />
          </mxGeometry>
        </mxCell>
        <mxCell id="pzSQEiRu-TKgo18cBddZ-3" value="comments" style="rounded=1;whiteSpace=wrap;html=1;" parent="1" vertex="1">
          <mxGeometry x="500" y="140" width="120" height="60" as="geometry" />
        </mxCell>
        <mxCell id="pzSQEiRu-TKgo18cBddZ-4" value="segment-info" style="rounded=1;whiteSpace=wrap;html=1;dashed=1;" parent="1" vertex="1">
          <mxGeometry x="150" y="80" width="120" height="60" as="geometry" />
        </mxCell>
        <mxCell id="pzSQEiRu-TKgo18cBddZ-12" style="edgeStyle=orthogonalEdgeStyle;rounded=0;orthogonalLoop=1;jettySize=auto;html=1;" parent="1" edge="1">
          <mxGeometry relative="1" as="geometry">
            <mxPoint x="560" y="320" as="targetPoint" />
            <mxPoint x="560" y="320" as="sourcePoint" />
          </mxGeometry>
        </mxCell>
        <mxCell id="pzSQEiRu-TKgo18cBddZ-13" style="edgeStyle=orthogonalEdgeStyle;rounded=0;orthogonalLoop=1;jettySize=auto;html=1;" parent="1" edge="1">
          <mxGeometry relative="1" as="geometry">
            <mxPoint x="560" y="310" as="targetPoint" />
            <mxPoint x="560" y="310" as="sourcePoint" />
          </mxGeometry>
        </mxCell>
        <mxCell id="pzSQEiRu-TKgo18cBddZ-5" value="table2asn" style="rounded=1;whiteSpace=wrap;html=1;" parent="1" vertex="1">
          <mxGeometry x="500" y="320" width="120" height="60" as="geometry" />
        </mxCell>
        <mxCell id="pzSQEiRu-TKgo18cBddZ-18" style="edgeStyle=orthogonalEdgeStyle;rounded=0;orthogonalLoop=1;jettySize=auto;html=1;exitX=0.5;exitY=1;exitDx=0;exitDy=0;" parent="1" source="pzSQEiRu-TKgo18cBddZ-29" edge="1">
          <mxGeometry relative="1" as="geometry">
            <mxPoint x="560" y="320" as="targetPoint" />
          </mxGeometry>
        </mxCell>
        <mxCell id="pzSQEiRu-TKgo18cBddZ-16" value="gbk2tbl" style="rounded=1;whiteSpace=wrap;html=1;dashed=1;" parent="1" vertex="1">
          <mxGeometry x="850" y="170" width="120" height="60" as="geometry" />
        </mxCell>
        <mxCell id="pzSQEiRu-TKgo18cBddZ-28" style="edgeStyle=orthogonalEdgeStyle;rounded=0;orthogonalLoop=1;jettySize=auto;html=1;exitX=0.5;exitY=1;exitDx=0;exitDy=0;exitPerimeter=0;entryX=0;entryY=0.5;entryDx=0;entryDy=0;" parent="1" source="pzSQEiRu-TKgo18cBddZ-20" target="pzSQEiRu-TKgo18cBddZ-5" edge="1">
          <mxGeometry relative="1" as="geometry" />
        </mxCell>
        <mxCell id="pzSQEiRu-TKgo18cBddZ-20" value="&lt;font style=&quot;font-size: 10px;&quot;&gt;.src&lt;/font&gt;" style="shape=note;whiteSpace=wrap;html=1;backgroundOutline=1;darkOpacity=0.05;size=11;" parent="1" vertex="1">
          <mxGeometry x="280" y="250" width="32" height="40" as="geometry" />
        </mxCell>
        <mxCell id="pzSQEiRu-TKgo18cBddZ-25" style="edgeStyle=orthogonalEdgeStyle;rounded=0;orthogonalLoop=1;jettySize=auto;html=1;exitX=0.5;exitY=1;exitDx=0;exitDy=0;entryX=0;entryY=0.5;entryDx=0;entryDy=0;entryPerimeter=0;dashed=1;" parent="1" source="pzSQEiRu-TKgo18cBddZ-4" target="pzSQEiRu-TKgo18cBddZ-20" edge="1">
          <mxGeometry relative="1" as="geometry" />
        </mxCell>
        <mxCell id="pzSQEiRu-TKgo18cBddZ-27" style="edgeStyle=orthogonalEdgeStyle;rounded=0;orthogonalLoop=1;jettySize=auto;html=1;exitX=0.5;exitY=1;exitDx=0;exitDy=0;entryX=1;entryY=0.5;entryDx=0;entryDy=0;entryPerimeter=0;" parent="1" source="pzSQEiRu-TKgo18cBddZ-1" target="pzSQEiRu-TKgo18cBddZ-20" edge="1">
          <mxGeometry relative="1" as="geometry" />
        </mxCell>
        <mxCell id="pzSQEiRu-TKgo18cBddZ-29" value="&lt;font style=&quot;font-size: 10px;&quot;&gt;.cmt&lt;/font&gt;" style="shape=note;whiteSpace=wrap;html=1;backgroundOutline=1;darkOpacity=0.05;size=11;" parent="1" vertex="1">
          <mxGeometry x="544" y="250" width="32" height="40" as="geometry" />
        </mxCell>
        <mxCell id="pzSQEiRu-TKgo18cBddZ-35" style="edgeStyle=orthogonalEdgeStyle;rounded=0;orthogonalLoop=1;jettySize=auto;html=1;exitX=0.5;exitY=1;exitDx=0;exitDy=0;exitPerimeter=0;entryX=1;entryY=0.5;entryDx=0;entryDy=0;" parent="1" source="pzSQEiRu-TKgo18cBddZ-31" target="pzSQEiRu-TKgo18cBddZ-5" edge="1">
          <mxGeometry relative="1" as="geometry" />
        </mxCell>
        <mxCell id="pzSQEiRu-TKgo18cBddZ-31" value="&lt;font style=&quot;font-size: 10px;&quot;&gt;.tbl&lt;/font&gt;" style="shape=note;whiteSpace=wrap;html=1;backgroundOutline=1;darkOpacity=0.05;size=11;" parent="1" vertex="1">
          <mxGeometry x="800" y="250" width="32" height="40" as="geometry" />
        </mxCell>
        <mxCell id="pzSQEiRu-TKgo18cBddZ-34" style="edgeStyle=orthogonalEdgeStyle;rounded=0;orthogonalLoop=1;jettySize=auto;html=1;exitX=0.5;exitY=1;exitDx=0;exitDy=0;entryX=0.969;entryY=0.5;entryDx=0;entryDy=0;entryPerimeter=0;dashed=1;" parent="1" source="pzSQEiRu-TKgo18cBddZ-16" target="pzSQEiRu-TKgo18cBddZ-31" edge="1">
          <mxGeometry relative="1" as="geometry" />
        </mxCell>
        <mxCell id="pzSQEiRu-TKgo18cBddZ-36" value="&lt;font style=&quot;font-size: 10px;&quot;&gt;.sqn&lt;/font&gt;" style="shape=note;whiteSpace=wrap;html=1;backgroundOutline=1;darkOpacity=0.05;size=11;" parent="1" vertex="1">
          <mxGeometry x="544" y="420" width="32" height="40" as="geometry" />
        </mxCell>
        <mxCell id="pzSQEiRu-TKgo18cBddZ-37" style="edgeStyle=orthogonalEdgeStyle;rounded=0;orthogonalLoop=1;jettySize=auto;html=1;exitX=0.5;exitY=1;exitDx=0;exitDy=0;entryX=0.5;entryY=0;entryDx=0;entryDy=0;entryPerimeter=0;" parent="1" source="pzSQEiRu-TKgo18cBddZ-5" target="pzSQEiRu-TKgo18cBddZ-36" edge="1">
          <mxGeometry relative="1" as="geometry" />
        </mxCell>
        <mxCell id="pzSQEiRu-TKgo18cBddZ-38" value="&lt;i&gt;Segments&lt;/i&gt;" style="text;html=1;align=center;verticalAlign=middle;whiteSpace=wrap;rounded=0;rotation=0;" parent="1" vertex="1">
          <mxGeometry x="200" y="270" width="70" height="30" as="geometry" />
        </mxCell>
        <mxCell id="pzSQEiRu-TKgo18cBddZ-39" value="&lt;i&gt;Organism&lt;/i&gt;" style="text;html=1;align=center;verticalAlign=middle;whiteSpace=wrap;rounded=0;rotation=-90;" parent="1" vertex="1">
          <mxGeometry x="305" y="187.5" width="120" height="30" as="geometry" />
        </mxCell>
        <mxCell id="pzSQEiRu-TKgo18cBddZ-49" style="edgeStyle=orthogonalEdgeStyle;rounded=0;orthogonalLoop=1;jettySize=auto;html=1;entryX=0.5;entryY=0;entryDx=0;entryDy=0;" parent="1" source="pzSQEiRu-TKgo18cBddZ-48" target="pzSQEiRu-TKgo18cBddZ-1" edge="1">
          <mxGeometry relative="1" as="geometry" />
        </mxCell>
        <mxCell id="pzSQEiRu-TKgo18cBddZ-52" value="" style="edgeStyle=orthogonalEdgeStyle;rounded=0;orthogonalLoop=1;jettySize=auto;html=1;entryX=0.5;entryY=0;entryDx=0;entryDy=0;" parent="1" source="pzSQEiRu-TKgo18cBddZ-48" target="pzSQEiRu-TKgo18cBddZ-2" edge="1">
          <mxGeometry relative="1" as="geometry">
            <mxPoint x="656" y="30" as="targetPoint" />
          </mxGeometry>
        </mxCell>
        <mxCell id="pzSQEiRu-TKgo18cBddZ-60" style="edgeStyle=orthogonalEdgeStyle;rounded=0;orthogonalLoop=1;jettySize=auto;html=1;exitX=0;exitY=0.5;exitDx=0;exitDy=0;exitPerimeter=0;entryX=1;entryY=0.25;entryDx=0;entryDy=0;" parent="1" source="pzSQEiRu-TKgo18cBddZ-59" target="pzSQEiRu-TKgo18cBddZ-5" edge="1">
          <mxGeometry relative="1" as="geometry" />
        </mxCell>
        <mxCell id="pUPda4is4iFvqVS0LF0G-14" style="edgeStyle=orthogonalEdgeStyle;rounded=0;orthogonalLoop=1;jettySize=auto;html=1;entryX=0.5;entryY=0;entryDx=0;entryDy=0;dashed=1;dashPattern=8 8;" edge="1" parent="1" target="pUPda4is4iFvqVS0LF0G-1">
          <mxGeometry relative="1" as="geometry">
            <mxPoint x="740" y="30" as="sourcePoint" />
          </mxGeometry>
        </mxCell>
        <mxCell id="pzSQEiRu-TKgo18cBddZ-48" value="&lt;font style=&quot;font-size: 10px;&quot;&gt;.fna&lt;/font&gt;" style="shape=note;whiteSpace=wrap;html=1;backgroundOutline=1;darkOpacity=0.05;size=11;" parent="1" vertex="1">
          <mxGeometry x="544" y="10" width="32" height="40" as="geometry" />
        </mxCell>
        <mxCell id="pUPda4is4iFvqVS0LF0G-11" value="" style="edgeStyle=orthogonalEdgeStyle;rounded=0;orthogonalLoop=1;jettySize=auto;html=1;startArrow=classic;startFill=1;dashed=1;endArrow=none;" edge="1" parent="1" source="pzSQEiRu-TKgo18cBddZ-59">
          <mxGeometry relative="1" as="geometry">
            <mxPoint x="740" y="270" as="targetPoint" />
            <Array as="points">
              <mxPoint x="740" y="305" />
              <mxPoint x="740" y="270" />
            </Array>
          </mxGeometry>
        </mxCell>
        <mxCell id="pzSQEiRu-TKgo18cBddZ-59" value="&lt;font style=&quot;font-size: 10px;&quot;&gt;.fna&lt;/font&gt;" style="shape=note;whiteSpace=wrap;html=1;backgroundOutline=1;darkOpacity=0.05;size=11;" parent="1" vertex="1">
          <mxGeometry x="670" y="285" width="32" height="40" as="geometry" />
        </mxCell>
        <mxCell id="-LrA51T8bJ5IcRYjtuTH-3" value="Sample metadata" style="text;html=1;align=center;verticalAlign=middle;whiteSpace=wrap;rounded=0;" parent="1" vertex="1">
          <mxGeometry x="320" y="350" width="160" height="30" as="geometry" />
        </mxCell>
        <mxCell id="-LrA51T8bJ5IcRYjtuTH-4" value="MIUVIG&lt;div&gt;Assembly-Data&lt;/div&gt;" style="text;html=1;align=right;verticalAlign=middle;whiteSpace=wrap;rounded=0;" parent="1" vertex="1">
          <mxGeometry x="450" y="255" width="90" height="30" as="geometry" />
        </mxCell>
        <mxCell id="-LrA51T8bJ5IcRYjtuTH-5" value="Sequence information" style="text;html=1;align=center;verticalAlign=middle;whiteSpace=wrap;rounded=0;" parent="1" vertex="1">
          <mxGeometry x="651" y="350" width="160" height="30" as="geometry" />
        </mxCell>
        <mxCell id="8B6IXXiz2PsDgIRqPqF5-3" value="co-occurrence" style="rounded=1;whiteSpace=wrap;html=1;dashed=1;" parent="1" vertex="1">
          <mxGeometry x="150" y="170" width="120" height="60" as="geometry" />
        </mxCell>
        <mxCell id="pUPda4is4iFvqVS0LF0G-2" style="edgeStyle=orthogonalEdgeStyle;rounded=0;orthogonalLoop=1;jettySize=auto;html=1;exitX=0.5;exitY=1;exitDx=0;exitDy=0;entryX=0.5;entryY=0;entryDx=0;entryDy=0;dashed=1;endArrow=none;startFill=0;" edge="1" parent="1" source="pUPda4is4iFvqVS0LF0G-1" target="pzSQEiRu-TKgo18cBddZ-16">
          <mxGeometry relative="1" as="geometry" />
        </mxCell>
        <mxCell id="pUPda4is4iFvqVS0LF0G-1" value="Feature annotation tool (eg. Phold)" style="rounded=1;whiteSpace=wrap;html=1;dashed=1;dashPattern=8 8;" vertex="1" parent="1">
          <mxGeometry x="850" y="80" width="120" height="60" as="geometry" />
        </mxCell>
        <mxCell id="pUPda4is4iFvqVS0LF0G-10" style="edgeStyle=orthogonalEdgeStyle;rounded=0;orthogonalLoop=1;jettySize=auto;html=1;exitX=0.5;exitY=1;exitDx=0;exitDy=0;entryX=0;entryY=0.5;entryDx=0;entryDy=0;entryPerimeter=0;" edge="1" parent="1" source="pzSQEiRu-TKgo18cBddZ-2" target="pzSQEiRu-TKgo18cBddZ-31">
          <mxGeometry relative="1" as="geometry" />
        </mxCell>
        <mxCell id="pUPda4is4iFvqVS0LF0G-15" value="" style="shape=actor;whiteSpace=wrap;html=1;" vertex="1" parent="1">
          <mxGeometry x="312" y="295" width="15" height="20" as="geometry" />
        </mxCell>
        <mxCell id="pUPda4is4iFvqVS0LF0G-22" value="" style="group" vertex="1" connectable="0" parent="1">
          <mxGeometry x="807.00025" y="393" width="162.45949999999993" height="70" as="geometry" />
        </mxCell>
        <mxCell id="pUPda4is4iFvqVS0LF0G-16" value="" style="shape=actor;whiteSpace=wrap;html=1;" vertex="1" parent="pUPda4is4iFvqVS0LF0G-22">
          <mxGeometry x="12.459749999999985" y="45" width="15" height="20" as="geometry" />
        </mxCell>
        <mxCell id="pUPda4is4iFvqVS0LF0G-3" value="" style="endArrow=none;html=1;rounded=0;dashed=1;strokeWidth=1.1811;" edge="1" parent="pUPda4is4iFvqVS0LF0G-22" target="pUPda4is4iFvqVS0LF0G-6">
          <mxGeometry width="50" height="50" relative="1" as="geometry">
            <mxPoint y="15" as="sourcePoint" />
            <mxPoint x="40" y="15" as="targetPoint" />
          </mxGeometry>
        </mxCell>
        <mxCell id="pUPda4is4iFvqVS0LF0G-4" value="" style="endArrow=none;html=1;rounded=0;dashed=1;dashPattern=8 8;" edge="1" parent="pUPda4is4iFvqVS0LF0G-22" target="pUPda4is4iFvqVS0LF0G-7">
          <mxGeometry width="50" height="50" relative="1" as="geometry">
            <mxPoint y="35" as="sourcePoint" />
            <mxPoint x="39.91949999999997" y="35" as="targetPoint" />
          </mxGeometry>
        </mxCell>
        <mxCell id="pUPda4is4iFvqVS0LF0G-6" value="Optional" style="text;html=1;align=center;verticalAlign=middle;whiteSpace=wrap;rounded=0;" vertex="1" parent="pUPda4is4iFvqVS0LF0G-22">
          <mxGeometry x="39.91949999999997" width="60" height="30" as="geometry" />
        </mxCell>
        <mxCell id="pUPda4is4iFvqVS0LF0G-7" value="External" style="text;html=1;align=center;verticalAlign=middle;whiteSpace=wrap;rounded=0;" vertex="1" parent="pUPda4is4iFvqVS0LF0G-22">
          <mxGeometry x="39.91949999999997" y="20" width="60" height="30" as="geometry" />
        </mxCell>
        <mxCell id="pUPda4is4iFvqVS0LF0G-20" value="Manual intervention" style="text;html=1;align=center;verticalAlign=middle;whiteSpace=wrap;rounded=0;" vertex="1" parent="pUPda4is4iFvqVS0LF0G-22">
          <mxGeometry x="39.91949999999997" y="40" width="122.54" height="30" as="geometry" />
        </mxCell>
      </root>
    </mxGraphModel>
  </diagram>
</mxfile>
